<?xml version="1.0" encoding="UTF-8"?><svg id="Layer_1" xmlns="http://www.w3.org/2000/svg" xmlns:xlink="http://www.w3.org/1999/xlink" viewBox="0 0 391.87 391.87"><defs><style>.cls-1{clip-path:url(#clippath);}.cls-2{fill:none;}.cls-2,.cls-3,.cls-4{stroke-width:0px;}.cls-3{fill:#474957;opacity:.12;}.cls-5{opacity:.3;}.cls-4{fill:#7f4cf7;}</style><clipPath id="clippath"><rect class="cls-2" x="5.42" y="5.42" width="381.03" height="381.03" rx="67.35" ry="67.35"/></clipPath></defs><g class="cls-1"><rect class="cls-3" x="5.42" y="5.42" width="381.03" height="381.03"/><g class="cls-5"><path class="cls-4" d="m414.08,332.49c-55.29-60.21-101-66.25-144.76-59.39.57-6.03,1.24-13.17,2.01-21.39,2.04-21.75,3.78-40.29,3.91-41.67-.19,2.08,44.5,1.88,44.28,4.16.26-2.75,2.35-25.07,2.41-25.63-.39,4.2-44.21-4.87-44.28-4.16.71-7.6,3.62-38.53,3.69-39.27-.52,5.55-25.64-2.61-25.66-2.41-.15,1.56-3.67,39.06-3.69,39.27-.16,1.68-44.3-3.95-44.28-4.16,0,0-1.99,21.21-2.41,25.63-.03.3,44.75-.78,44.28,4.16,0,.04-2.04,21.68-3.91,41.67-1.11,11.87-2.06,21.9-2.74,29.21-11.78,2.83-23.54,6-35.42,8.68-64.33,14.5-79.73-7.25-142.24-21.74-38.01-8.81-75.69,2.47-99.39,12.67v107.08h460.1v-39.82c-3.76-4.05-7.72-8.33-11.9-12.88Z"/><path class="cls-4" d="m298.29,244.84h0s0,.07,0,.1c0-.03,0-.05,0-.1Z"/><path class="cls-4" d="m298.27,245c0,.09,0,.09,0,0h0Z"/><path class="cls-4" d="m298.28,244.94s0,.05,0,.07c0-.02,0-.04,0-.07Z"/><path class="cls-4" d="m102.47,50.18c7.91,7.91,12.8,18.83,12.8,30.9,0,24.14-19.57,43.71-43.71,43.71-8.95,0-17.26-2.69-24.19-7.31,7.68,16.53,24.41,28,43.84,28,26.69,0,48.32-21.63,48.32-48.32,0-22.8-15.8-41.91-37.05-46.99Z"/></g></g></svg>