<?xml version="1.0" encoding="UTF-8"?><svg xmlns="http://www.w3.org/2000/svg" xmlns:xlink="http://www.w3.org/1999/xlink" viewBox="0 0 204.93 204.93"><defs><style>.cls-1{fill:url(#linear-gradient);}.cls-1,.cls-2,.cls-3,.cls-4,.cls-5,.cls-6,.cls-7,.cls-8{stroke-width:0px;}.cls-9,.cls-2{mix-blend-mode:overlay;}.cls-2,.cls-6{fill:#221f20;}.cls-10{isolation:isolate;}.cls-3{fill:#474957;}.cls-4{fill:#626478;}.cls-5{fill:#3c3a47;}.cls-7{fill:#fff;}.cls-8{fill:#6a6d82;}</style><linearGradient id="linear-gradient" x1="102.46" y1="162.52" x2="102.46" y2="47.88" gradientUnits="userSpaceOnUse"><stop offset="0" stop-color="#c07cf7"/><stop offset=".22" stop-color="#b876f7"/><stop offset=".56" stop-color="#a265f7"/><stop offset=".98" stop-color="#7f4cf7"/></linearGradient></defs><g class="cls-10"><g id="Layer_1"><path class="cls-3" d="m186.33,174.86c-3.67,0-7.01,1.48-9.41,3.9-2.4,2.42-3.9,5.74-3.9,9.41H31.91c0-7.35-5.96-13.31-13.33-13.31h167.75Z"/><rect class="cls-8" x="15.64" y="162.52" width="173.64" height="12.34"/><rect class="cls-5" x="22.94" y="188.17" width="159.06" height="13.38"/><polyline class="cls-6" points="164.34 125.33 164.36 125.33 170.66 131.65"/><rect class="cls-3" x="40.59" y="90.75" width="19.01" height="34.58"/><rect class="cls-8" x="40.59" y="125.33" width="19.01" height="37.19"/><polygon class="cls-3" points="40.59 125.33 40.59 162.52 34.27 162.52 34.27 131.65 40.59 125.33"/><path class="cls-1" d="m141.09,72.16c-2.11-4.37-4.93-8.32-8.32-11.73-7.75-7.75-18.46-12.55-30.3-12.55-17.75,0-32.99,10.8-39.5,26.18-2.16,5.14-3.36,10.77-3.36,16.69v71.77h85.72v-71.77c0-6.66-1.51-12.96-4.23-18.59Z"/><path class="cls-2" d="m117.63,75c0,.17,0,7.73,0,6.81,0-.6-11.76.55-11.76,0v22.14c0,.22-6.81-.78-6.81,0v-22.14c0-1.31-11.76.08-11.76,0v-6.81c0,.06,11.76.44,11.76,0v-10.43c0-.05,6.81,1.47,6.81,0v10.43c0-.19,11.76,1.12,11.76,0Z"/><path class="cls-7" d="m117.63,73.6c0,.17,0,7.73,0,6.81,0-.6-11.76.55-11.76,0v22.14c0,.22-6.81-.78-6.81,0v-22.14c0-1.31-11.76.08-11.76,0v-6.81c0,.06,11.76.44,11.76,0v-10.43c0-.05,6.81,1.47,6.81,0v10.43c0-.19,11.76,1.12,11.76,0Z"/><rect class="cls-3" x="145.32" y="90.75" width="19.02" height="34.58"/><path class="cls-3" d="m164.34,71.15v19.6h-19.02c0-6.66-1.51-12.96-4.23-18.59-2.11-4.37-4.93-8.32-8.32-11.73-7.75-7.75-18.46-12.55-30.3-12.55-17.75,0-32.99,10.8-39.5,26.18-2.16,5.14-3.36,10.77-3.36,16.69h-19.01v-19.6h17.33l2.7-7.97-.89-2.66c9.5-13.38,25.12-22.13,42.74-22.13s33.24,8.75,42.74,22.13l-.9,2.66,2.71,7.97h17.33Z"/><path class="cls-4" d="m178.5,50.03v28.8h-14.16v-7.69h.07l2.7-7.97-2.7-7.99s-.83-3.9-3.62-9.26c-6.12-11.8-21.64-30.67-58.26-30.67h-.14c-39.12,0-54.16,21.54-59.37,32.97-1.89,4.14-2.5,6.95-2.5,6.95l-2.7,7.99,2.7,7.97h.07v7.69h-14.16v-28.8l11.99-4.28S43.67,3.38,102.44,3.38h.06c54.23,0,62.89,36.08,63.91,41.65.01.08.03.17.04.24.06.31.07.48.07.48l11.99,4.28Z"/><rect class="cls-8" x="145.32" y="125.33" width="19.02" height="37.19"/><polygon class="cls-3" points="170.66 131.65 170.66 162.52 164.34 162.52 164.34 125.33 170.66 131.65"/><polygon class="cls-5" points="167.11 63.17 164.41 71.15 147.01 71.15 144.3 63.17 167.11 63.17"/><polygon class="cls-8" points="167.11 63.17 144.3 63.17 145.2 60.52 147.01 55.19 164.41 55.19 167.11 63.17"/><polygon class="cls-5" points="60.62 63.17 57.92 71.15 40.52 71.15 37.82 63.17 60.62 63.17"/><polygon class="cls-8" points="60.62 63.17 37.82 63.17 40.52 55.19 57.92 55.19 59.73 60.52 60.62 63.17"/><path class="cls-8" d="m164.41,55.19h-17.4l-1.81,5.33c-9.5-13.38-25.12-22.13-42.74-22.13s-33.24,8.75-42.74,22.13l-1.81-5.33h-17.4s.61-2.81,2.5-6.95c5.22-11.43,20.25-32.97,59.37-32.97h.14c36.62,0,52.14,18.87,58.26,30.67,2.78,5.36,3.62,9.26,3.62,9.26Z"/><g class="cls-9"><path class="cls-6" d="m67.88,111.78c0,.48,9.34.41,9.34,0,1.39.99,2.56,1.37,3.51,1.05.95,2.14,1.66.99,2.13,2.74.47.81.7,3.51.7,3.6,0,2.11-.24,2.22-.72,3.56-.48,2.15-1.19,1.83-2.13,2.9-.94.36-2.08,1.13-3.42,1.15,0-.26-4.46,1.41-4.46,0,0-.65,0,7.45,0,6.56,0-.08-4.97-.83-4.97,0v-21.57Zm9.87,10.02c.39.77.68-.4.86-1.09.19.74.28-3.85.28-1.5,0-.25-.1-2.42-.31-1.42-.21-.3-.51-2.31-.9-1.07-.4.37-.85,1.24-1.35-.41,0,.07-3.48-.22-3.48,0,0,1.07,0,6.41,0,5.89,0,.05,3.48.88,3.48,0,.56.09,1.03,1.74,1.42-.41Z"/><path class="cls-6" d="m90.49,132.09c-1.65-.7-2.94-1.37-3.89-4.01-.94.7-1.42-4.86-1.42-5.52,0-2.36.47-2.57,1.42-5.52.94-2.44,2.24-2.82,3.89-4.01,1.65-.13,3.46-1.17,5.44-1.48,1.98.13,3.79,1.61,5.44,1.48,1.65.57,2.94,1.36,3.89,4.01.95,1.43,1.42,2.83,1.42,5.52,0,.52-.47,4-1.42,5.52-.94,2.62-2.24,1.94-3.89,4.01-1.65,2.81-3.46.91-5.44,1.48-1.98.59-3.79.54-5.44-1.48Zm8.33-4.41c.86.58,1.54-.09,2.04-2.15.5-1.6.74-3.25.74-2.97,0-1.76-.25-3.79-.74-2.98-.5-.93-1.17-1.81-2.04-2.16-.86-.41-1.83-1.37-2.89-.8-1.06,1.86-2.03.3-2.89.8-.86-.16-1.54.4-2.02,2.16-.49,1.15-.73,2.02-.73,2.98,0,2.01.24,1.64.73,2.97.49,1.66,1.16,2.38,2.02,2.15.86,1.46,1.83.38,2.89.8,1.06.38,2.02.18,2.89-.8Z"/><path class="cls-6" d="m108.27,128.71c0,2.27,5.8-.15,5.8,0,.54.74,1.01-.79,1.42-.5.41-.52.61-.17.61-1.31,0-1.07-.18-.41-.53-1.21-.35.32-.9.32-1.63-1.03-.22.02-.43.8-.65-.3-1.08-.81-2.01,1.01-2.78-1.51-.77-.18-1.43-1.97-1.96-1.98-.53.76-.8-1.45-.8-2.88,0-1.9.27-2.92.8-3.1.53.98,1.22-1.15,2.08-2.28.85-.77,1.75-2.03,2.69-.85,0,.35,7.24-1.31,7.24,0,0-1.06,0,5.73,0,4.64,0,.81-5.24,2-5.24,0-.68-.79-1.22,1.7-1.62.31-.4-.52-.59-.43-.59,1.26,0,.02.09,3.2.26,1.01.17-.8.41-.41.73.74.31-1.47.73-.87,1.26.73,0-.4.38-.25.38.19,1.15.8,2.12,2.85,2.92,1.66.79,1.14,1.46,1.44,2.01,2.05.55,2.54.82,1.82.82,3.01,0,1.96-.23,1.34-.67,2.94-.45.89-1.09,1.15-1.93,2.21-.84,1.33-1.81.74-2.93.84,0,.74-7.67.6-7.67,0v-4.64Z"/><path class="cls-6" d="m127.36,116.4c0-.59-5.08-.19-5.08,0v-4.64c0,.96,3.83.05,7.65,0,3.83.1,7.65.5,7.65,0,0-.61,0,5.28,0,4.64,0,.69-5.24.11-5.24,0,0-.22,0,4.27,0,8.48s0,9.66,0,8.48c0-.62-4.99,1.21-4.99,0v-16.96Z"/><path class="cls-6" d="m69.18,139.54c0,.47,2.52,1.24,2.52,0,0-.37,2.52,6.69,2.52,6.18,0,.58-.53,1.47-.53,0,0,.89,2.54-6.53,2.54-6.18,0-.41,2.52.08,2.52,0,0-.84.62,2.7,1.24,6.18.62,2.47,1.24,5.95,1.24,6.18s-3.11.51-3.11,0c0,.18-1.55-8.92-1.55-7.3,0,.09.4,1.8.4.03s-3.02,7-3.02,7.1c0,.98-3-6.04-3-7.1,0-.21.4.71.4-.03,0,.1-1.55,6.94-1.55,7.3,0,.2-3.11-.94-3.11,0,0-.03.62-2.66,1.24-6.18.62-2.34,1.24-6.76,1.24-6.18Z"/><path class="cls-6" d="m84.42,151.18c-.94.76-1.69-1.03-2.23-2.3-.54-.92-.81-2.19-.81-3.16,0-2,.27-1.33.81-3.16.54-1.71,1.28-3.35,2.23-2.3.94-.67,1.98-1.74,3.12-.85,1.13,1.12,2.17-.05,3.12.85.94.94,1.69,1.14,2.23,2.3.54-.03.81,2.97.81,3.16,0,.23-.27,2.88-.81,3.16-.54,1.05-1.28,1.8-2.23,2.3-.94.42-1.98-1.09-3.12.85-1.13-.19-2.17-.47-3.12-.85Zm4.77-2.53c.49.74.88-1.66,1.17-1.23.28-2.01.43-1.05.43-1.7,0-1.13-.14-.49-.43-1.71-.28-1.92-.67-2.44-1.17-1.24-.5.45-1.05-1.01-1.65-.46-.61.35-1.16.88-1.65.46-.49-.34-.88,1.1-1.16,1.24-.28.23-.42,1.76-.42,1.71,0,.78.14,1.27.42,1.7.28-1.39.67.63,1.16,1.23.49-1.24,1.05,1.26,1.65.46.61.35,1.16-1.3,1.65-.46Z"/><path class="cls-6" d="m94.93,139.55c0-.62,5.35-1.2,5.35,0,.79-.06,1.46.76,2.01.6.55,1.63.95,2.69,1.22,1.57.27,1.49.4.09.4,2.06,0,.97-.14,2.4-.41,2.04-.27-.83-.68,1.66-1.22,1.66-.54-.15-1.19,2.32-1.96.66,0-.5-2.55.11-2.55,0,0-.09,0,3.37,0,3.76,0-.59-2.85-.92-2.85,0,0,.39,0-12.32,0-12.35Zm5.65,5.74c.22-.04.39-.77.5-.63.11,1.24.16.05.16-.86,0,.32-.06-1.16-.18-.81-.12-.12-.29-1.04-.52-.61-.23,1.62-.48-.21-.77-.23,0-1.04-1.99.97-1.99,0,0-1.05,0,4.69,0,3.37,0,.76,1.99.63,1.99,0,.32-.44.59.13.81-.23Zm3.39,6.62c0-.2-3.23-.52-3.23,0,0,.06-1.96-4.3-1.96-4.42,0,.18,3.11-.3,3.11-.2,0-.23,2.09,5.47,2.09,4.62Z"/><path class="cls-6" d="m107.5,142.2c0,.56-2.91,2.04-2.91,0,0,.03,0-.62,0-2.66,0,.07,8.77-.82,8.77,0,0-.83,0,2.18,0,2.66,0,.9-3-.11-3,0,0,1.21,0,10.64,0,9.71,0,.15-2.86-1.24-2.86,0v-9.71Z"/><path class="cls-6" d="m114.59,139.54c0-.76,8.02-.74,8.02,0,0-.2,0,2.74,0,2.66,0,.57-5.18.33-5.18,0,0,1.29,0,2.01,0,1.93,0-.52,4.13,2.01,4.13,0,0,.51,0,2.98,0,2.66,0,1.13-4.13-.05-4.13,0,0,.65,0,2.66,0,2.46,0-.14,5.18.79,5.18,0v2.66c0-.81-8.02-.99-8.02,0,0,.36,0-11.08,0-12.37Z"/><path class="cls-6" d="m126.18,139.54c0,1.14,2.52-1.36,2.52,0,0-.09,2.52,5.66,2.52,6.18,0-2-.53-.14-.53,0,0-.42,2.54-6.65,2.54-6.18,0,1.54,2.52.05,2.52,0,0,.76.62,3.83,1.24,6.18.62,3.49,1.24,5.14,1.24,6.18,0,.38-3.11-.99-3.11,0,0-.66-1.55-8.79-1.55-7.3,0,1.4.4,1.34.4.03,0,.01-3.02,8.6-3.02,7.1,0-1.26-3-7.15-3-7.1,0,1.5.4-.5.4-.03,0,.19-1.55,9.12-1.55,7.3,0-.64-3.11-1-3.11,0,0-.49.62-2.48,1.24-6.18.62-2.59,1.24-6.55,1.24-6.18Z"/></g><path class="cls-7" d="m67.88,110.08c0,.48,9.34.41,9.34,0,1.39.99,2.56,1.37,3.51,1.05.95,2.14,1.66.99,2.13,2.74.47.81.7,3.51.7,3.6,0,2.11-.24,2.22-.72,3.56-.48,2.15-1.19,1.83-2.13,2.9-.94.36-2.08,1.13-3.42,1.15,0-.26-4.46,1.41-4.46,0,0-.65,0,7.45,0,6.56,0-.08-4.97-.83-4.97,0v-21.57Zm9.87,10.02c.39.77.68-.4.86-1.09.19.74.28-3.85.28-1.5,0-.25-.1-2.42-.31-1.42-.21-.3-.51-2.31-.9-1.07-.4.37-.85,1.24-1.35-.41,0,.07-3.48-.22-3.48,0,0,1.07,0,6.41,0,5.89,0,.05,3.48.88,3.48,0,.56.09,1.03,1.74,1.42-.41Z"/><path class="cls-7" d="m90.49,130.38c-1.65-.7-2.94-1.37-3.89-4.01-.94.7-1.42-4.86-1.42-5.52,0-2.36.47-2.57,1.42-5.52.94-2.44,2.24-2.82,3.89-4.01,1.65-.13,3.46-1.17,5.44-1.48,1.98.13,3.79,1.61,5.44,1.48,1.65.57,2.94,1.36,3.89,4.01.95,1.43,1.42,2.83,1.42,5.52,0,.52-.47,4-1.42,5.52-.94,2.62-2.24,1.94-3.89,4.01-1.65,2.81-3.46.91-5.44,1.48-1.98.59-3.79.54-5.44-1.48Zm8.33-4.41c.86.58,1.54-.09,2.04-2.15.5-1.6.74-3.25.74-2.97,0-1.76-.25-3.79-.74-2.98-.5-.93-1.17-1.81-2.04-2.16-.86-.41-1.83-1.37-2.89-.8-1.06,1.86-2.03.3-2.89.8-.86-.16-1.54.4-2.02,2.16-.49,1.15-.73,2.02-.73,2.98,0,2.01.24,1.64.73,2.97.49,1.66,1.16,2.38,2.02,2.15.86,1.46,1.83.38,2.89.8,1.06.38,2.02.18,2.89-.8Z"/><path class="cls-7" d="m108.27,127.01c0,2.27,5.8-.15,5.8,0,.54.74,1.01-.79,1.42-.5.41-.52.61-.17.61-1.31,0-1.07-.18-.41-.53-1.21-.35.32-.9.32-1.63-1.03-.22.02-.43.8-.65-.3-1.08-.81-2.01,1.01-2.78-1.51-.77-.18-1.43-1.97-1.96-1.98-.53.76-.8-1.45-.8-2.88,0-1.9.27-2.92.8-3.1.53.98,1.22-1.15,2.08-2.28.85-.77,1.75-2.03,2.69-.85,0,.35,7.24-1.31,7.24,0,0-1.06,0,5.73,0,4.64,0,.81-5.24,2-5.24,0-.68-.79-1.22,1.7-1.62.31-.4-.52-.59-.43-.59,1.26,0,.02.09,3.2.26,1.01.17-.8.41-.41.73.74.31-1.47.73-.87,1.26.73,0-.4.38-.25.38.19,1.15.8,2.12,2.85,2.92,1.66.79,1.14,1.46,1.44,2.01,2.05.55,2.54.82,1.82.82,3.01,0,1.96-.23,1.34-.67,2.94-.45.89-1.09,1.15-1.93,2.21-.84,1.33-1.81.74-2.93.84,0,.74-7.67.6-7.67,0v-4.64Z"/><path class="cls-7" d="m127.36,114.7c0-.59-5.08-.19-5.08,0v-4.64c0,.96,3.83.05,7.65,0,3.83.1,7.65.5,7.65,0,0-.61,0,5.28,0,4.64,0,.69-5.24.11-5.24,0,0-.22,0,4.27,0,8.48s0,9.66,0,8.48c0-.62-4.99,1.21-4.99,0v-16.96Z"/><path class="cls-7" d="m69.18,137.84c0,.47,2.52,1.24,2.52,0,0-.37,2.52,6.69,2.52,6.18,0,.58-.53,1.47-.53,0,0,.89,2.54-6.53,2.54-6.18,0-.41,2.52.08,2.52,0,0-.84.62,2.7,1.24,6.18.62,2.47,1.24,5.95,1.24,6.18s-3.11.51-3.11,0c0,.18-1.55-8.92-1.55-7.3,0,.09.4,1.8.4.03s-3.02,7-3.02,7.1c0,.98-3-6.04-3-7.1,0-.21.4.71.4-.03,0,.1-1.55,6.94-1.55,7.3,0,.2-3.11-.94-3.11,0,0-.03.62-2.66,1.24-6.18.62-2.34,1.24-6.76,1.24-6.18Z"/><path class="cls-7" d="m84.42,149.48c-.94.76-1.69-1.03-2.23-2.3-.54-.92-.81-2.19-.81-3.16,0-2,.27-1.33.81-3.16.54-1.71,1.28-3.35,2.23-2.3.94-.67,1.98-1.74,3.12-.85,1.13,1.12,2.17-.05,3.12.85.94.94,1.69,1.14,2.23,2.3.54-.03.81,2.97.81,3.16,0,.23-.27,2.88-.81,3.16-.54,1.05-1.28,1.8-2.23,2.3-.94.42-1.98-1.09-3.12.85-1.13-.19-2.17-.47-3.12-.85Zm4.77-2.53c.49.74.88-1.66,1.17-1.23.28-2.01.43-1.05.43-1.7,0-1.13-.14-.49-.43-1.71-.28-1.92-.67-2.44-1.17-1.24-.5.45-1.05-1.01-1.65-.46-.61.35-1.16.88-1.65.46-.49-.34-.88,1.1-1.16,1.24-.28.23-.42,1.76-.42,1.71,0,.78.14,1.27.42,1.7.28-1.39.67.63,1.16,1.23.49-1.24,1.05,1.26,1.65.46.61.35,1.16-1.3,1.65-.46Z"/><path class="cls-7" d="m94.93,137.85c0-.62,5.35-1.2,5.35,0,.79-.06,1.46.76,2.01.6.55,1.63.95,2.69,1.22,1.57.27,1.49.4.09.4,2.06,0,.97-.14,2.4-.41,2.04-.27-.83-.68,1.66-1.22,1.66-.54-.15-1.19,2.32-1.96.66,0-.5-2.55.11-2.55,0,0-.09,0,3.37,0,3.76,0-.59-2.85-.92-2.85,0,0,.39,0-12.32,0-12.35Zm5.65,5.74c.22-.04.39-.77.5-.63.11,1.24.16.05.16-.86,0,.32-.06-1.16-.18-.81-.12-.12-.29-1.04-.52-.61-.23,1.62-.48-.21-.77-.23,0-1.04-1.99.97-1.99,0,0-1.05,0,4.69,0,3.37,0,.76,1.99.63,1.99,0,.32-.44.59.13.81-.23Zm3.39,6.62c0-.2-3.23-.52-3.23,0,0,.06-1.96-4.3-1.96-4.42,0,.18,3.11-.3,3.11-.2,0-.23,2.09,5.47,2.09,4.62Z"/><path class="cls-7" d="m107.5,140.5c0,.56-2.91,2.04-2.91,0,0,.03,0-.62,0-2.66,0,.07,8.77-.82,8.77,0,0-.83,0,2.18,0,2.66,0,.9-3-.11-3,0,0,1.21,0,10.64,0,9.71,0,.15-2.86-1.24-2.86,0v-9.71Z"/><path class="cls-7" d="m114.59,137.84c0-.76,8.02-.74,8.02,0,0-.2,0,2.74,0,2.66,0,.57-5.18.33-5.18,0,0,1.29,0,2.01,0,1.93,0-.52,4.13,2.01,4.13,0,0,.51,0,2.98,0,2.66,0,1.13-4.13-.05-4.13,0,0,.65,0,2.66,0,2.46,0-.14,5.18.79,5.18,0v2.66c0-.81-8.02-.99-8.02,0,0,.36,0-11.08,0-12.37Z"/><path class="cls-7" d="m126.18,137.84c0,1.14,2.52-1.36,2.52,0,0-.09,2.52,5.66,2.52,6.18,0-2-.53-.14-.53,0,0-.42,2.54-6.65,2.54-6.18,0,1.54,2.52.05,2.52,0,0,.76.62,3.83,1.24,6.18.62,3.49,1.24,5.14,1.24,6.18,0,.38-3.11-.99-3.11,0,0-.66-1.55-8.79-1.55-7.3,0,1.4.4,1.34.4.03,0,.01-3.02,8.6-3.02,7.1,0-1.26-3-7.15-3-7.1,0,1.5.4-.5.4-.03,0,.19-1.55,9.12-1.55,7.3,0-.64-3.11-1-3.11,0,0-.49.62-2.48,1.24-6.18.62-2.59,1.24-6.55,1.24-6.18Z"/></g></g></svg>